<svg width="313" height="252" viewBox="0 0 313 252" fill="none" xmlns="http://www.w3.org/2000/svg">
<path d="M294.712 203.327C291.992 196.527 287.805 190.471 282.551 185.538C283.144 182.56 283.465 179.476 283.465 176.325C283.465 150.413 262.396 129.407 236.406 129.407C234.959 129.407 233.533 129.48 232.119 129.606C224.792 116.564 211.644 107.224 196.182 105.07C194.475 87.8202 179.88 74.3457 162.125 74.3457C144.37 74.3457 128.915 88.6378 127.955 106.619C122.701 104.319 116.9 103.036 110.793 103.036C87.4169 103.036 68.4282 121.736 68.0348 144.955C67.5148 144.929 66.9881 144.916 66.4613 144.916C48.8461 144.916 34.5713 159.148 34.5713 176.711C34.5713 179.848 35.038 182.879 35.8847 185.744C28.6373 189.341 22.8433 195.403 19.5897 202.822C10.7821 206.498 4.59473 215.166 4.59473 225.277C4.59473 238.718 15.5226 249.614 29.004 249.614H284.171C297.653 249.614 308.581 238.718 308.581 225.277C308.581 215.598 302.92 207.242 294.712 203.32V203.327Z" fill="white"/>
<g style="mix-blend-mode:multiply">
<path d="M309.287 245.439H3.86807C2.04788 245.439 0.581055 246.908 0.581055 248.716C0.581055 250.524 2.05455 251.993 3.86807 251.993H309.287C311.101 251.993 312.574 250.524 312.574 248.716C312.574 246.908 311.101 245.439 309.287 245.439Z" fill="#536BEC"/>
</g>
<path d="M179.814 243.797H99.5449V248.663H179.814V243.797Z" fill="#536BEC"/>
<path d="M139.676 121.018L78.3096 118.811L88.0973 234.244C88.644 240.672 94.0312 245.612 100.505 245.612H178.84C185.308 245.612 190.702 240.672 191.248 234.244L201.036 118.811L139.669 121.018H139.676Z" fill="#536BEC"/>
<path d="M164.639 207.528C152.351 228.056 103.252 230.788 87.8438 231.133L88.1104 234.244C88.6572 240.672 94.0444 245.612 100.518 245.612H178.853C185.321 245.612 190.715 240.672 191.261 234.244L201.049 118.811L177.367 119.661C177.167 143.26 175.353 189.64 164.645 207.521L164.639 207.528Z" fill="#3857E1"/>
<path d="M201.043 118.811L139.676 121.018L78.3096 118.811L79.7297 135.522H130.035V135.695C130.035 138.241 132.109 140.309 134.662 140.309H144.683C147.237 140.309 149.31 138.241 149.31 135.695V135.522H199.616L201.036 118.811H201.043Z" fill="#536BEC"/>
<path d="M209.27 118.811C209.27 114.802 206.01 111.558 201.996 111.558H77.3693C73.3489 111.558 70.0952 114.809 70.0952 118.811V126.063H130.048V133.229C130.048 135.775 132.122 137.842 134.675 137.842H144.697C147.25 137.842 149.324 135.775 149.324 133.229V126.063H209.277V118.811H209.27Z" fill="#536BEC"/>
<path d="M195.675 182.108L141.363 131.374C140.37 130.444 138.809 130.497 137.883 131.487C136.949 132.478 137.002 134.033 137.996 134.957L195.149 188.343L195.675 182.101V182.108Z" fill="#536BEC"/>
<path d="M123.227 115.048H80.2028C79.1627 115.048 78.3159 115.892 78.3159 116.929C78.3159 117.966 79.1627 118.81 80.2028 118.81H123.227C124.267 118.81 125.114 117.966 125.114 116.929C125.114 115.892 124.267 115.048 123.227 115.048Z" fill="#7F9EF3"/>
<path d="M135.242 115.048H129.348C128.308 115.048 127.461 115.892 127.461 116.929C127.461 117.966 128.308 118.81 129.348 118.81H135.242C136.282 118.81 137.129 117.966 137.129 116.929C137.129 115.892 136.282 115.048 135.242 115.048Z" fill="#7F9EF3"/>
<path d="M144.036 130.709C144.036 133.109 142.089 135.05 139.682 135.05C137.275 135.05 135.329 133.109 135.329 130.709C135.329 128.31 137.275 126.369 139.682 126.369C142.089 126.369 144.036 128.31 144.036 130.709Z" fill="#536BEC"/>
<path d="M201.042 190.49C200.436 190.49 199.836 190.271 199.356 189.826L137.989 132.504C136.996 131.573 136.942 130.025 137.876 129.034C138.803 128.044 140.363 127.99 141.356 128.921L202.723 186.243C203.716 187.173 203.769 188.722 202.836 189.713C202.349 190.231 201.696 190.49 201.036 190.49H201.042Z" fill="#536BEC"/>
<path d="M202.689 188.849C202.083 188.849 201.483 188.629 201.003 188.184L139.636 130.862C138.929 130.204 138.709 129.234 138.969 128.37C138.562 128.489 138.182 128.702 137.876 129.034C136.942 130.025 136.996 131.58 137.989 132.504L199.356 189.826C199.829 190.271 200.436 190.49 201.043 190.49C201.703 190.49 202.356 190.231 202.843 189.713C203.116 189.427 203.289 189.088 203.396 188.736C203.163 188.802 202.929 188.849 202.689 188.849Z" fill="#3857E1"/>
<path d="M60.9744 231.107C60.9744 231.107 58.3141 238.732 51.8401 245.751C54.7737 246.15 58.4741 246.602 62.8012 247.028C65.3215 242.268 69.7286 233.001 71.2688 223.828C71.2688 223.828 69.4219 236.897 65.5749 247.287C69.1419 247.606 73.069 247.905 77.2961 248.138L80.8365 228.042L80.3431 248.297C84.3502 248.483 88.5973 248.61 93.0311 248.65L94.2113 223.828L95.6047 248.656C100.005 248.656 104.579 248.577 109.273 248.37C107.386 243.684 104.166 234.524 102.819 223.828C102.819 223.828 105.999 239.935 112.973 248.184C123.034 247.619 133.589 246.502 144.19 244.575C144.19 244.575 127.395 224.207 125.048 209.35H66.0349C66.0349 209.35 59.6542 229.877 44.2393 244.575C44.2393 244.575 45.7794 244.861 48.5797 245.279C52.6068 241.922 58.3608 236.518 60.9877 231.1L60.9744 231.107Z" fill="#19266B"/>
<path d="M144.177 244.582C144.177 244.582 127.381 224.214 125.034 209.356H66.0215C66.0215 209.356 65.0881 212.361 63.0679 216.901C75.6225 215.884 95.8914 215.658 105.519 223.31C113.74 229.844 116.14 240.121 116.854 247.945C125.728 247.327 134.929 246.263 144.163 244.582H144.177Z" fill="#162057"/>
<path d="M100.198 17.9551H91.6309V210.207H100.198V17.9551Z" fill="#DB3C7E"/>
<path d="M100.192 17.9551H96.5581V210.207H100.192V17.9551Z" fill="#D2BAE5"/>
<path d="M95.9116 0.172852C93.0846 0.172852 90.791 2.45959 90.791 5.27813V89.3623H101.039V5.28478C101.039 2.46624 98.7452 0.179499 95.9182 0.179499L95.9116 0.172852ZM97.9584 10.1973C97.9584 11.3274 97.0383 12.2381 95.9116 12.2381C94.7848 12.2381 93.8647 11.3207 93.8647 10.1973V5.74345C93.8647 4.61338 94.7848 3.70267 95.9116 3.70267C97.0383 3.70267 97.9584 4.62003 97.9584 5.74345V10.1973Z" fill="#DB3C7E"/>
<path d="M95.9118 0.172852C95.4517 0.172852 95.005 0.239327 94.585 0.352334C96.7719 0.937314 98.3787 2.91827 98.3787 5.27813V89.3623H101.032V5.28478C101.032 2.46624 98.7387 0.179499 95.9118 0.179499V0.172852Z" fill="#D8228D"/>
<path d="M90.3708 172.735H101.065C101.865 172.735 102.519 173.387 102.519 174.185V183.451H88.9106V174.185C88.9106 173.387 89.5641 172.735 90.3641 172.735H90.3708Z" fill="#DB3C7E"/>
<path d="M101.105 172.735H98.9316V183.451H102.525V174.144C102.525 173.367 101.892 172.729 101.105 172.729V172.735Z" fill="#DB3C7E"/>
<path d="M102.779 181.41H88.6574C75.4493 181.41 64.7349 192.086 64.7349 205.261V210.686H126.695V205.261C126.695 192.093 115.987 181.41 102.772 181.41H102.779Z" fill="#DB3C7E"/>
<path d="M112.486 183.464C112.546 183.617 118.187 198.102 111.28 202.31C106.613 205.155 81.0364 204.676 64.7614 204.051C64.7414 204.45 64.728 204.849 64.728 205.255V210.679H126.688V205.255C126.688 195.529 120.847 187.173 112.48 183.458L112.486 183.464Z" fill="#DB3C7E"/>
<path d="M99.5117 204.796H120.794C120.547 195.104 112.56 187.293 102.779 187.293H99.5117V204.796Z" fill="#D8228D"/>
<path d="M91.9244 187.293H88.6574C78.8763 187.293 70.8888 195.104 70.6421 204.796H91.9244V187.293Z" fill="#D8228D"/>
<path d="M101.725 189.394C110.786 189.394 118.307 196.101 119.561 204.803H120.794C120.547 195.111 112.56 187.3 102.779 187.3H99.5117V189.4H101.725V189.394Z" fill="#DB3C7E"/>
<path d="M88.6571 187.293C81.1896 187.293 74.7756 191.846 72.042 198.315C75.169 192.983 80.9696 189.394 87.6037 189.394H90.8707V204.802H91.9241V187.3H88.6571V187.293Z" fill="#DB3C7E"/>
<path d="M111.213 206.544H82.0163C81.3029 206.544 80.7295 207.123 80.7295 207.827C80.7295 208.532 81.3096 209.11 82.0163 209.11H111.213C111.926 209.11 112.5 208.532 112.5 207.827C112.5 207.123 111.919 206.544 111.213 206.544Z" fill="#F3C9C3"/>
<path d="M119.434 206.544H115.4C114.687 206.544 114.113 207.123 114.113 207.827C114.113 208.532 114.693 209.11 115.4 209.11H119.434C120.147 209.11 120.721 208.532 120.721 207.827C120.721 207.123 120.141 206.544 119.434 206.544Z" fill="#F3C9C3"/>
<path d="M234.239 153.384H219.818V161.601H234.239V153.384Z" fill="#F8FAFF"/>
<path d="M234.506 147.096H219.551C219.043 147.096 218.631 147.506 218.631 148.013V154.827C218.631 155.333 219.043 155.744 219.551 155.744H234.506C235.014 155.744 235.426 155.333 235.426 154.827V148.013C235.426 147.506 235.014 147.096 234.506 147.096Z" fill="#DB3C7E"/>
<path d="M219.711 155.219C219.511 155.219 219.344 155.06 219.344 154.854V148.366C219.344 148.166 219.504 148 219.711 148C219.911 148 220.078 148.16 220.078 148.366V154.854C220.078 155.053 219.918 155.219 219.711 155.219Z" fill="#D8228D"/>
<path d="M221.171 155.219C220.971 155.219 220.804 155.06 220.804 154.854V148.366C220.804 148.166 220.964 148 221.171 148C221.371 148 221.538 148.16 221.538 148.366V154.854C221.538 155.053 221.378 155.219 221.171 155.219Z" fill="#D8228D"/>
<path d="M222.638 155.219C222.438 155.219 222.271 155.06 222.271 154.854V148.366C222.271 148.166 222.431 148 222.638 148C222.838 148 223.004 148.16 223.004 148.366V154.854C223.004 155.053 222.844 155.219 222.638 155.219Z" fill="#D8228D"/>
<path d="M224.098 155.219C223.898 155.219 223.731 155.06 223.731 154.854V148.366C223.731 148.166 223.891 148 224.098 148C224.298 148 224.465 148.16 224.465 148.366V154.854C224.465 155.053 224.305 155.219 224.098 155.219Z" fill="#D8228D"/>
<path d="M225.565 155.219C225.365 155.219 225.198 155.06 225.198 154.854V148.366C225.198 148.166 225.358 148 225.565 148C225.765 148 225.932 148.16 225.932 148.366V154.854C225.932 155.053 225.772 155.219 225.565 155.219Z" fill="#D8228D"/>
<path d="M227.025 155.219C226.825 155.219 226.658 155.06 226.658 154.854V148.366C226.658 148.166 226.818 148 227.025 148C227.225 148 227.392 148.16 227.392 148.366V154.854C227.392 155.053 227.232 155.219 227.025 155.219Z" fill="#D8228D"/>
<path d="M228.492 155.219C228.292 155.219 228.125 155.06 228.125 154.854V148.366C228.125 148.166 228.285 148 228.492 148C228.692 148 228.858 148.16 228.858 148.366V154.854C228.858 155.053 228.698 155.219 228.492 155.219Z" fill="#D8228D"/>
<path d="M230.319 148.366C230.319 148.164 230.156 148 229.955 148C229.754 148 229.592 148.164 229.592 148.366V154.847C229.592 155.049 229.754 155.213 229.955 155.213C230.156 155.213 230.319 155.049 230.319 154.847V148.366Z" fill="#D8228D"/>
<path d="M231.419 155.219C231.219 155.219 231.052 155.06 231.052 154.854V148.366C231.052 148.166 231.212 148 231.419 148C231.619 148 231.786 148.16 231.786 148.366V154.854C231.786 155.053 231.626 155.219 231.419 155.219Z" fill="#D8228D"/>
<path d="M232.879 155.219C232.679 155.219 232.512 155.06 232.512 154.854V148.366C232.512 148.166 232.672 148 232.879 148C233.079 148 233.246 148.16 233.246 148.366V154.854C233.246 155.053 233.086 155.219 232.879 155.219Z" fill="#D8228D"/>
<path d="M234.346 155.219C234.146 155.219 233.979 155.06 233.979 154.854V148.366C233.979 148.166 234.139 148 234.346 148C234.546 148 234.712 148.16 234.712 148.366V154.854C234.712 155.053 234.552 155.219 234.346 155.219Z" fill="#D8228D"/>
<path d="M247.547 191.614C246.594 189.613 242.547 183.863 243.38 179.708C244.214 175.553 245.6 171.957 245.047 167.523C244.907 166.406 244.594 165.363 244.2 164.426C243.007 161.574 240.147 159.766 237.04 159.766H216.417C213.317 159.766 210.457 161.574 209.257 164.426C208.863 165.363 208.55 166.406 208.41 167.523C207.856 171.957 209.243 175.553 210.077 179.708C210.91 183.863 206.863 189.613 205.91 191.614C203.403 196.872 193.902 218.616 205.91 243.125C205.93 243.165 205.95 243.212 205.97 243.252C207.61 246.575 211.017 248.663 214.737 248.663H238.72C242.433 248.663 245.841 246.575 247.487 243.252C247.507 243.212 247.527 243.165 247.547 243.125C259.555 218.616 250.054 196.872 247.547 191.614Z" fill="#F8FAFF"/>
<path d="M243.387 179.708C244.22 175.553 245.607 171.957 245.054 167.523C244.914 166.406 244.6 165.363 244.207 164.426C243.014 161.574 240.153 159.766 237.046 159.766H234.853C234.819 160.178 234.806 160.404 234.806 160.404C234.806 160.404 242.774 167.144 239.153 175.327C235.533 183.51 239.153 189.766 242.774 202.522C246.394 215.279 244.46 229.717 234.326 236.936C226.972 242.175 212.644 241.716 205.136 241.43C205.39 241.989 205.65 242.554 205.93 243.119C205.95 243.159 205.97 243.205 205.99 243.245C207.63 246.569 211.037 248.656 214.757 248.656H238.74C242.454 248.656 245.861 246.569 247.507 243.245C247.527 243.205 247.547 243.159 247.567 243.119C259.575 218.609 250.074 196.865 247.567 191.607C246.614 189.606 242.567 183.856 243.4 179.701L243.387 179.708Z" fill="#F8FAFF"/>
<path d="M226.719 237.661C237.718 237.661 246.634 227.102 246.634 214.076C246.634 201.05 237.718 190.491 226.719 190.491C215.72 190.491 206.803 201.05 206.803 214.076C206.803 227.102 215.72 237.661 226.719 237.661Z" fill="#DB3C7E"/>
<path d="M226.718 235.767C216.784 235.767 208.703 226.035 208.703 214.076C208.703 202.117 216.784 192.385 226.718 192.385C236.653 192.385 244.727 202.117 244.727 214.076C244.727 226.035 236.646 235.767 226.718 235.767Z" fill="#536BEC"/>
<path d="M226.718 233.865C217.837 233.865 210.61 224.984 210.61 214.076C210.61 203.167 217.837 194.286 226.718 194.286C235.599 194.286 242.827 203.167 242.827 214.076C242.827 224.984 235.599 233.865 226.718 233.865Z" fill="white"/>
<path d="M236.68 213.591C225.879 213.431 225.245 218.975 216.031 218.344C214.424 218.231 212.837 217.872 211.304 217.347C212.471 226.507 218.938 233.54 226.712 233.54C235.313 233.54 242.307 224.945 242.307 214.375C242.307 214.242 242.307 214.109 242.3 213.976C240.554 213.764 238.673 213.617 236.673 213.591H236.68Z" fill="#536BEC"/>
<path d="M213.804 179.469C213.264 179.469 212.744 179.163 212.504 178.638C207.903 168.673 213.43 162.405 213.664 162.139C214.19 161.554 215.097 161.507 215.677 162.039C216.264 162.564 216.311 163.462 215.784 164.047C215.591 164.266 211.31 169.258 215.091 177.448C215.417 178.159 215.104 179.01 214.39 179.336C214.197 179.422 213.997 179.469 213.797 179.469H213.804Z" fill="#F8FAFF"/>
<path d="M155.891 235.514V243.637C155.891 246.416 158.151 248.663 160.931 248.663H226.978C229.765 248.663 232.019 246.409 232.019 243.637V235.514H155.891Z" fill="white"/>
<path d="M232.019 239.343H155.891V240.739H232.019V239.343Z" fill="#DB3C7E"/>
<path d="M232.019 242.089H155.891V243.485H232.019V242.089Z" fill="#DB3C7E"/>
<path d="M231.292 246.224C231.552 245.798 231.745 245.326 231.872 244.828H156.044C156.164 245.326 156.364 245.792 156.624 246.224H231.299H231.292Z" fill="#DB3C7E"/>
<path d="M198.922 18.6196H190.354V233.786H198.922V18.6196Z" fill="#DB3C7E"/>
<path d="M198.922 18.6196H195.289V233.786H198.922V18.6196Z" fill="#D2BAE5"/>
<path d="M222.271 228.255L203.269 211.523C203.009 211.291 202.669 211.164 202.322 211.164V208.133C202.322 207.249 201.602 206.538 200.722 206.538H188.568C187.681 206.538 186.967 207.256 186.967 208.133V211.164C186.621 211.164 186.281 211.291 186.021 211.523L167.019 228.255C166.712 228.528 166.539 228.913 166.539 229.325V235.215C166.539 235.999 167.179 236.637 167.965 236.637H221.338C222.125 236.637 222.765 235.999 222.765 235.215V229.325C222.765 228.92 222.591 228.528 222.285 228.255H222.271ZM169.386 233.792V229.963L186.961 214.488V233.792H169.386ZM219.898 233.792H202.322V214.488L219.898 229.963V233.792Z" fill="#121B5C"/>
<path d="M200.722 206.538H198.269V229.744C198.269 231.978 200.082 233.792 202.329 233.792V208.14C202.329 207.256 201.609 206.544 200.729 206.544L200.722 206.538Z" fill="#19266B"/>
<path d="M190.908 212.84V208.997C190.908 208.392 190.421 207.907 189.814 207.907C189.207 207.907 188.721 208.392 188.721 208.997V212.84C188.721 213.445 189.207 213.93 189.814 213.93C190.421 213.93 190.908 213.445 190.908 212.84Z" fill="#1A2574"/>
<path d="M190.908 216.183V215.426C190.908 214.821 190.421 214.335 189.814 214.335C189.207 214.335 188.721 214.821 188.721 215.426V216.183C188.721 216.788 189.207 217.274 189.814 217.274C190.421 217.274 190.908 216.788 190.908 216.183Z" fill="#1A2574"/>
<path d="M234.159 233.174H153.997C153.231 233.174 152.61 233.793 152.61 234.557V236.471C152.61 237.235 153.231 237.854 153.997 237.854H234.159C234.925 237.854 235.546 237.235 235.546 236.471V234.557C235.546 233.793 234.925 233.174 234.159 233.174Z" fill="#2C4B7F"/>
<path d="M235.553 236.471V234.557C235.553 233.793 234.932 233.174 234.166 233.174H232.719C231.592 234.404 228.158 235.933 218.391 236.618C206.176 237.475 172.246 236.618 152.61 236.006V236.478C152.61 237.243 153.23 237.861 153.997 237.861H234.166C234.932 237.861 235.553 237.243 235.553 236.478V236.471Z" fill="#1C2E67"/>
<path d="M194.081 0.844238C191.255 0.844238 188.961 3.13098 188.961 5.94952V36.4017H199.209V5.94952C199.209 3.13098 196.915 0.844238 194.088 0.844238H194.081ZM196.128 10.862C196.128 11.9921 195.208 12.9028 194.081 12.9028C192.955 12.9028 192.035 11.9854 192.035 10.862V6.40819C192.035 5.27812 192.955 4.36741 194.081 4.36741C195.208 4.36741 196.128 5.28477 196.128 6.40819V10.862Z" fill="#121B5C"/>
<path d="M194.082 0.844238C193.622 0.844238 193.175 0.910713 192.755 1.02372C194.942 1.6087 196.549 3.58965 196.549 5.94952V36.4017H199.202V5.94952C199.202 3.13098 196.909 0.844238 194.082 0.844238Z" fill="#19266B"/>
<path d="M146.897 17.7822H138.329V218.457H146.897V17.7822Z" fill="#121B5C"/>
<g style="mix-blend-mode:multiply" opacity="0.5">
<path d="M146.897 17.7822H143.263V218.457H146.897V17.7822Z" fill="#121B5C"/>
</g>
<path d="M136.576 214.116H148.65C149.557 214.116 150.29 214.847 150.29 215.751V226.214H134.929V215.751C134.929 214.847 135.662 214.116 136.569 214.116H136.576Z" fill="#DB3C7E"/>
<g style="mix-blend-mode:multiply">
<path d="M148.69 214.116H146.237V226.214H150.297V215.711C150.297 214.827 149.577 214.116 148.697 214.116H148.69Z" fill="#DB3C7E"/>
</g>
<path d="M112.12 248.663L111.673 237.462H110.339H109.013L108.566 248.663H109.093L109.306 245.406L109.473 248.663H109.773L110.053 246.037L110.086 248.663H110.339H110.593L110.626 246.037L110.913 248.663H111.206V244.043L111.593 248.663H112.12Z" fill="#FCFEFF"/>
<path d="M116.407 248.663L115.953 237.462H114.626H113.3L112.846 248.663H113.373L113.586 245.406L113.76 248.663H114.053L114.34 246.037L114.373 248.663H114.626H114.88L114.913 246.037L115.2 248.663H115.493V244.043L115.88 248.663H116.407Z" fill="#FCFEFF"/>
<path d="M120.687 248.663L120.24 237.462H118.913H117.58L117.133 248.663H117.66L117.873 245.406L118.04 248.663H118.34L118.627 246.037L118.66 248.663H118.913H119.16L119.2 246.037L119.48 248.663H119.78V244.043L120.16 248.663H120.687Z" fill="#FCFEFF"/>
<path d="M124.974 248.663L124.528 237.462H123.194H121.867L121.414 248.663H121.941L122.161 245.406L122.328 248.663H122.621L122.908 246.037L122.941 248.663H123.194H123.448L123.481 246.037L123.768 248.663H124.061V244.043L124.448 248.663H124.974Z" fill="#FCFEFF"/>
<path d="M129.262 248.663L128.808 237.462H127.481H126.148L125.701 248.663H126.228L126.441 245.406L126.615 248.663H126.908L127.195 246.037L127.228 248.663H127.481H127.735L127.768 246.037L128.055 248.663H128.348V244.043L128.728 248.663H129.262Z" fill="#FCFEFF"/>
<path d="M133.542 248.663L133.095 237.462H131.762H130.435L129.988 248.663H130.515L130.728 245.406L130.895 248.663H131.195L131.475 246.037L131.515 248.663H131.762H132.015L132.048 246.037L132.335 248.663H132.629V244.043L133.015 248.663H133.542Z" fill="#FCFEFF"/>
<path d="M137.829 248.663L137.376 237.462H136.049H134.722L134.269 248.663H134.795L135.009 245.406L135.182 248.663H135.475L135.762 246.037L135.795 248.663H136.049H136.302L136.335 246.037L136.622 248.663H136.916V244.043L137.302 248.663H137.829Z" fill="#FCFEFF"/>
<path d="M142.109 248.663L141.663 237.462H140.336H139.002L138.556 248.663H139.082L139.296 245.406L139.469 248.663H139.762L140.049 246.037L140.082 248.663H140.336H140.589L140.623 246.037L140.903 248.663H141.203V244.043L141.583 248.663H142.109Z" fill="#FCFEFF"/>
<path d="M146.397 248.663L145.95 237.462H144.617H143.29L142.836 248.663H143.37L143.583 245.406L143.75 248.663H144.043L144.33 246.037L144.363 248.663H144.617H144.87L144.903 246.037L145.19 248.663H145.483V244.043L145.87 248.663H146.397Z" fill="#FCFEFF"/>
<path d="M150.684 248.663L150.231 237.462H148.904H147.57L147.124 248.663H147.65L147.864 245.406L148.037 248.663H148.33L148.617 246.037L148.65 248.663H148.904H149.157L149.19 246.037L149.477 248.663H149.77V244.043L150.157 248.663H150.684Z" fill="#FCFEFF"/>
<path d="M154.964 248.663L154.518 237.462H153.184H151.857L151.411 248.663H151.937L152.151 245.406L152.317 248.663H152.617L152.904 246.037L152.937 248.663H153.184H153.438L153.471 246.037L153.758 248.663H154.058L154.051 244.043L154.438 248.663H154.964Z" fill="#FCFEFF"/>
<path d="M159.251 248.663L158.798 237.462H157.471H156.144L155.691 248.663H156.218L156.431 245.406L156.604 248.663H156.898L157.184 246.037L157.218 248.663H157.471H157.724L157.758 246.037L158.045 248.663H158.338V244.043L158.725 248.663H159.251Z" fill="#FCFEFF"/>
<path d="M163.532 248.663L163.085 237.462H161.758H160.425L159.978 248.663H160.505L160.718 245.406L160.891 248.663H161.185L161.472 246.037L161.505 248.663H161.758H162.012L162.045 246.037L162.332 248.663H162.625V244.043L163.005 248.663H163.532Z" fill="#FCFEFF"/>
<path d="M167.819 248.663L167.372 237.462H166.039H164.712L164.265 248.663H164.792L165.005 245.406L165.172 248.663H165.472L165.752 246.037L165.785 248.663H166.039H166.292L166.325 246.037L166.612 248.663H166.905V244.043L167.292 248.663H167.819Z" fill="#FCFEFF"/>
<path d="M172.106 248.663L171.652 237.462H170.326H168.999L168.545 248.663H169.072L169.285 245.406L169.459 248.663H169.752L170.039 246.037L170.072 248.663H170.326H170.579L170.612 246.037L170.899 248.663H171.192V244.043L171.579 248.663H172.106Z" fill="#FCFEFF"/>
<path d="M176.387 248.663L175.94 237.462H174.613H173.28L172.833 248.663H173.36L173.573 245.406L173.746 248.663H174.04L174.326 246.037L174.36 248.663H174.613H174.86L174.9 246.037L175.18 248.663H175.48V244.043L175.86 248.663H176.387Z" fill="#FCFEFF"/>
<path d="M170.039 224.586H115.187C111.02 224.586 107.639 227.956 107.639 232.111V239.636H177.593V232.111C177.593 227.956 174.213 224.586 170.046 224.586H170.039Z" fill="#DB3C7E"/>
<g style="mix-blend-mode:soft-light" opacity="0.5">
<path d="M158.865 226.214H125.901C125.094 226.214 124.448 226.866 124.448 227.664C124.448 228.461 125.101 229.113 125.901 229.113H158.865C159.672 229.113 160.318 228.461 160.318 227.664C160.318 226.866 159.665 226.214 158.865 226.214Z" fill="white"/>
<path d="M168.146 226.214H163.599C162.792 226.214 162.145 226.866 162.145 227.664C162.145 228.461 162.798 229.113 163.599 229.113H168.146C168.952 229.113 169.599 228.461 169.599 227.664C169.599 226.866 168.946 226.214 168.146 226.214Z" fill="white"/>
</g>
<g style="mix-blend-mode:multiply">
<path d="M171.353 224.706C171.393 224.832 173.5 231.991 168.799 235.056C164.919 237.582 122.861 237.077 107.639 236.804V239.636H177.593V232.111C177.593 228.402 174.9 225.324 171.353 224.706Z" fill="#DB3C7E"/>
</g>
<path d="M142.609 0C139.782 0 137.489 2.28674 137.489 5.10528V35.5575H147.737V5.10528C147.737 2.28674 145.443 0 142.616 0H142.609ZM144.663 10.0178C144.663 11.1479 143.743 12.0586 142.616 12.0586C141.489 12.0586 140.569 11.1412 140.569 10.0178V5.56396C140.569 4.43388 141.489 3.52317 142.616 3.52317C143.743 3.52317 144.663 4.44053 144.663 5.56396V10.0178Z" fill="#DB3C7E"/>
<path d="M142.61 0C142.149 0 141.703 0.066475 141.283 0.179482C143.47 0.764462 145.076 2.74542 145.076 5.10528V35.5575H147.73V5.10528C147.73 2.28674 145.436 0 142.61 0Z" fill="#D2BAE5"/>
<path d="M147.877 13.2021H137.349C137.073 13.2021 136.849 13.4254 136.849 13.7007V14.2392C136.849 14.5145 137.073 14.7377 137.349 14.7377H147.877C148.153 14.7377 148.377 14.5145 148.377 14.2392V13.7007C148.377 13.4254 148.153 13.2021 147.877 13.2021Z" fill="#18226A"/>
<path d="M147.877 15.6548H137.349C137.073 15.6548 136.849 15.878 136.849 16.1533V16.6918C136.849 16.9671 137.073 17.1904 137.349 17.1904H147.877C148.153 17.1904 148.377 16.9671 148.377 16.6918V16.1533C148.377 15.878 148.153 15.6548 147.877 15.6548Z" fill="#18226A"/>
<path d="M147.877 18.1079H137.349C137.073 18.1079 136.849 18.3311 136.849 18.6065V19.1449C136.849 19.4203 137.073 19.6435 137.349 19.6435H147.877C148.153 19.6435 148.377 19.4203 148.377 19.1449V18.6065C148.377 18.3311 148.153 18.1079 147.877 18.1079Z" fill="#18226A"/>
<path d="M147.877 20.5605H137.349C137.073 20.5605 136.849 20.7838 136.849 21.0591V21.5976C136.849 21.8729 137.073 22.0961 137.349 22.0961H147.877C148.153 22.0961 148.377 21.8729 148.377 21.5976V21.0591C148.377 20.7838 148.153 20.5605 147.877 20.5605Z" fill="#18226A"/>
<path d="M147.877 23.0137H137.349C137.073 23.0137 136.849 23.2369 136.849 23.5122V24.0507C136.849 24.326 137.073 24.5492 137.349 24.5492H147.877C148.153 24.5492 148.377 24.326 148.377 24.0507V23.5122C148.377 23.2369 148.153 23.0137 147.877 23.0137Z" fill="#18226A"/>
<path d="M147.877 25.4668H137.349C137.073 25.4668 136.849 25.69 136.849 25.9654V26.5038C136.849 26.7792 137.073 27.0024 137.349 27.0024H147.877C148.153 27.0024 148.377 26.7792 148.377 26.5038V25.9654C148.377 25.69 148.153 25.4668 147.877 25.4668Z" fill="#18226A"/>
<path d="M147.877 27.9194H137.349C137.073 27.9194 136.849 28.1426 136.849 28.418V28.9564C136.849 29.2318 137.073 29.455 137.349 29.455H147.877C148.153 29.455 148.377 29.2318 148.377 28.9564V28.418C148.377 28.1426 148.153 27.9194 147.877 27.9194Z" fill="#18226A"/>
<path d="M147.877 30.3726H137.349C137.073 30.3726 136.849 30.5958 136.849 30.8711V31.4096C136.849 31.6849 137.073 31.9081 137.349 31.9081H147.877C148.153 31.9081 148.377 31.6849 148.377 31.4096V30.8711C148.377 30.5958 148.153 30.3726 147.877 30.3726Z" fill="#18226A"/>
<path d="M65.8545 183.537C64.081 183.537 62.6475 182.108 62.6475 180.34V158.19C62.6475 155.983 63.4409 153.83 64.9411 152.201C66.8479 150.12 68.0147 147.348 68.0147 144.31C68.0147 137.603 62.3475 132.212 55.5267 132.631C49.6995 132.99 44.9523 137.709 44.5722 143.519C44.3522 146.876 45.5523 149.954 47.6326 152.214C49.1461 153.856 49.9128 156.043 49.9128 158.277V180.34C49.9128 182.108 48.4793 183.537 46.7058 183.537H46.5191C34.2645 183.537 24.3301 193.442 24.3301 205.66V248.663H88.0369V205.66C88.0369 193.442 78.1025 183.537 65.8478 183.537H65.8545ZM56.1935 139.032C59.0738 139.032 61.414 141.359 61.414 144.237C61.414 147.116 59.0805 149.442 56.1935 149.442C53.3065 149.442 50.9729 147.116 50.9729 144.237C50.9729 141.359 53.3065 139.032 56.1935 139.032Z" fill="#F8FAFF"/>
<g style="mix-blend-mode:multiply">
<path d="M65.8214 183.537C64.0679 183.517 62.6477 182.095 62.6477 180.34V158.19C62.6477 155.983 63.4411 153.83 64.9413 152.201C66.8481 150.12 68.0149 147.348 68.0149 144.31C68.0149 137.603 62.3477 132.212 55.5269 132.631C55.4936 132.631 55.4669 132.637 55.4336 132.637C61.5209 133.063 66.3348 138.122 66.3348 144.304C66.3348 147.348 65.168 150.114 63.2611 152.194C61.7676 153.823 60.9675 155.977 60.9675 158.184V180.333C60.9675 182.101 62.401 183.531 64.1745 183.531C64.7279 183.531 65.8214 183.531 65.8214 183.531V183.537Z" fill="#F8FAFF"/>
</g>
<g style="mix-blend-mode:soft-light">
<path d="M54.5066 171.651V157.499C54.5066 156.695 53.8532 156.05 53.0531 156.05C52.253 156.05 51.5996 156.701 51.5996 157.499V171.651C51.5996 172.456 52.253 173.101 53.0531 173.101C53.8532 173.101 54.5066 172.449 54.5066 171.651Z" fill="white"/>
</g>
<g style="mix-blend-mode:soft-light">
<path d="M54.5066 180.905V176.371C54.5066 175.567 53.8532 174.922 53.0531 174.922C52.253 174.922 51.5996 175.573 51.5996 176.371V180.905C51.5996 181.709 52.253 182.354 53.0531 182.354C53.8532 182.354 54.5066 181.702 54.5066 180.905Z" fill="white"/>
</g>
<path d="M64.908 189.912H47.4662C36.4116 189.912 27.4507 198.846 27.4507 209.868V248.663H84.9235V209.868C84.9235 198.846 75.9625 189.912 64.908 189.912Z" fill="#803573"/>
<path d="M84.9167 244.654H27.4438V248.663H84.9167V244.654Z" fill="#F8FAFF"/>
<g style="mix-blend-mode:multiply" opacity="0.5">
<path d="M64.9078 189.912H47.4659C41.3519 189.912 35.878 192.651 32.2109 196.958C35.2913 195.024 38.9383 193.901 42.8521 193.901H60.2939C71.3485 193.901 80.3094 202.835 80.3094 213.856V248.663H84.9232V209.868C84.9232 198.846 75.9623 189.912 64.9078 189.912Z" fill="#803573"/>
</g>
<path d="M59.9475 230.854L56.4471 223.954C55.9404 222.951 54.6269 222.279 53.1934 222.279H28.1907C26.7506 222.279 25.4438 222.951 24.937 223.954L21.4367 230.854L17.1162 228.674L20.6166 221.774C21.9501 219.148 24.9237 217.453 28.1974 217.453H53.2001C56.4671 217.453 59.4474 219.148 60.7809 221.774L64.2813 228.674L59.9608 230.854H59.9475Z" fill="#DB3C7E"/>
<path d="M56.4402 223.954L59.9405 230.854L64.261 228.674L60.7606 221.774C60.0139 220.305 58.7537 219.128 57.2202 218.377C56.9135 219.48 55.4467 220.611 50.7596 220.611C41.5852 220.611 26.3303 218.989 23.47 221.847C21.6365 223.675 20.123 227.358 19.2695 229.771L21.4231 230.861L24.9235 223.961C25.4302 222.957 26.7437 222.286 28.1771 222.286H53.1798C54.62 222.286 55.9268 222.957 56.4335 223.961L56.4402 223.954Z" fill="#D2BAE5"/>
<path d="M64.1613 228.235H17.6297C14.096 228.235 11.229 231.094 11.229 234.624V241.005H70.5753V234.624C70.5753 231.1 67.7084 228.235 64.1747 228.235H64.1613Z" fill="#DB3C7E"/>
<path d="M15.0291 248.663L14.6491 239.164H13.5156H12.3888L12.0088 248.663H12.4555L12.6355 245.898L12.7822 248.663H13.0356L13.2756 246.43L13.3023 248.663H13.5156H13.7356L13.7623 246.43L14.0023 248.663H14.2557V244.741L14.5824 248.663H15.0291Z" fill="#FCFEFF"/>
<path d="M18.6629 248.663L18.2829 239.164H17.1561H16.0293L15.6426 248.663H16.0893L16.276 245.898L16.416 248.663H16.6694L16.9094 246.43L16.9427 248.663H17.1561H17.3694L17.3961 246.43L17.6361 248.663H17.8895V244.741L18.2162 248.663H18.6629Z" fill="#FCFEFF"/>
<path d="M22.2964 248.663L21.9163 239.164H20.7895H19.6628L19.2827 248.663H19.7294L19.9094 245.898L20.0495 248.663H20.3028L20.5429 246.43L20.5762 248.663H20.7895H21.0029L21.0296 246.43L21.2763 248.663H21.523V244.741L21.8497 248.663H22.2964Z" fill="#FCFEFF"/>
<path d="M25.9302 248.663L25.5501 239.164H24.4233H23.2965L22.9165 248.663H23.3632L23.5432 245.898L23.6899 248.663H23.9366L24.1833 246.43L24.21 248.663H24.4233H24.6367L24.6634 246.43L24.9101 248.663H25.1567V244.741L25.4834 248.663H25.9302Z" fill="#FCFEFF"/>
<path d="M29.5639 248.663L29.1839 239.164H28.0571H26.9303L26.5503 248.663H26.997L27.177 245.898L27.3237 248.663H27.5704L27.8171 246.43L27.8438 248.663H28.0571H28.2705L28.3038 246.43L28.5438 248.663H28.7972L28.7905 244.741L29.1172 248.663H29.5639Z" fill="#FCFEFF"/>
<path d="M33.2044 248.663L32.8177 239.164H31.6909H30.5641L30.1841 248.663H30.6308L30.8108 245.898L30.9575 248.663H31.2109L31.4509 246.43L31.4776 248.663H31.6909H31.9043L31.9376 246.43L32.1776 248.663H32.431V244.741L32.7577 248.663H33.2044Z" fill="#FCFEFF"/>
<path d="M36.8382 248.663L36.4582 239.164H35.3314H34.1979L33.8179 248.663H34.2646L34.4446 245.898L34.5913 248.663H34.8446L35.0847 246.43L35.1113 248.663H35.3314H35.5447L35.5714 246.43L35.8114 248.663H36.0648V244.741L36.3915 248.663H36.8382Z" fill="#FCFEFF"/>
<path d="M40.472 248.663L40.0919 239.164H38.9652H37.8384L37.4517 248.663H37.8984L38.0851 245.898L38.2251 248.663H38.4784L38.7185 246.43L38.7518 248.663H38.9652H39.1785L39.2052 246.43L39.4452 248.663H39.6986V244.741L40.0253 248.663H40.472Z" fill="#FCFEFF"/>
<path d="M44.1055 248.663L43.7254 239.164H42.5986H41.4718L41.0918 248.663H41.5385L41.7185 245.898L41.8585 248.663H42.1119L42.3519 246.43L42.3853 248.663H42.5986H42.812L42.8387 246.43L43.0853 248.663H43.332V244.741L43.6587 248.663H44.1055Z" fill="#FCFEFF"/>
<path d="M47.7392 248.663L47.3592 239.164H46.2324H45.1056L44.7256 248.663H45.1723L45.3523 245.898L45.499 248.663H45.7457L45.9924 246.43L46.0191 248.663H46.2324H46.4458L46.4724 246.43L46.7191 248.663H46.9658V244.741L47.2925 248.663H47.7392Z" fill="#FCFEFF"/>
<path d="M51.3797 248.663L50.993 239.164H49.8662H48.7394L48.3594 248.663H48.8061L48.9861 245.898L49.1328 248.663H49.3795L49.6262 246.43L49.6528 248.663H49.8662H50.0796L50.1129 246.43L50.3529 248.663H50.6063L50.5996 244.741L50.9263 248.663H51.3797Z" fill="#FCFEFF"/>
<path d="M55.0135 248.663L54.6334 239.164H53.5H52.3732L51.9932 248.663H52.4399L52.6199 245.898L52.7666 248.663H53.0199L53.26 246.43L53.2866 248.663H53.5H53.7133L53.7467 246.43L53.9867 248.663H54.2401V244.741L54.5668 248.663H55.0135Z" fill="#FCFEFF"/>
<path d="M58.6473 248.663L58.2672 239.164H57.1405H56.007L55.627 248.663H56.0737L56.2537 245.898L56.4004 248.663H56.6537L56.8938 246.43L56.9204 248.663H57.1405H57.3538L57.3805 246.43L57.6205 248.663H57.8739V244.741L58.2006 248.663H58.6473Z" fill="#FCFEFF"/>
<path d="M62.2811 248.663L61.901 239.164H60.7742H59.6474L59.2607 248.663H59.7075L59.8941 245.898L60.0342 248.663H60.2875L60.5275 246.43L60.5609 248.663H60.7742H60.9876L61.0143 246.43L61.2543 248.663H61.5076V244.741L61.8344 248.663H62.2811Z" fill="#FCFEFF"/>
<path d="M65.9145 248.663L65.5345 239.164H64.4077H63.2809L62.9009 248.663H63.3476L63.5276 245.898L63.6743 248.663H63.921L64.161 246.43L64.1944 248.663H64.4077H64.6211L64.6477 246.43L64.8944 248.663H65.1411V244.741L65.4678 248.663H65.9145Z" fill="#FCFEFF"/>
<path d="M69.5483 248.663L69.1683 239.164H68.0415H66.9147L66.5347 248.663H66.9814L67.1614 245.898L67.3081 248.663H67.5548L67.8015 246.43L67.8281 248.663H68.0415H68.2549L68.2815 246.43L68.5282 248.663H68.7749V244.741L69.1016 248.663H69.5483Z" fill="#FCFEFF"/>
<path d="M54.6867 229.618H26.7237C26.0436 229.618 25.4902 230.17 25.4902 230.848C25.4902 231.526 26.0436 232.078 26.7237 232.078H54.6867C55.3668 232.078 55.9201 231.526 55.9201 230.848C55.9201 230.17 55.3668 229.618 54.6867 229.618Z" fill="#FAE2E9"/>
<path d="M62.5607 229.618H58.7003C58.0202 229.618 57.4668 230.17 57.4668 230.848C57.4668 231.526 58.0202 232.078 58.7003 232.078H62.5607C63.2407 232.078 63.7941 231.526 63.7941 230.848C63.7941 230.17 63.2407 229.618 62.5607 229.618Z" fill="#FAE2E9"/>
<path d="M65.2746 228.342C65.3079 228.448 67.1015 234.524 63.1077 237.123C59.814 239.27 24.1369 238.838 11.2222 238.606V241.005H70.5685V234.624C70.5685 231.479 68.2816 228.867 65.2746 228.342Z" fill="#D2BAE5"/>
<path d="M288.845 187.546C287.272 186.11 284.125 182.454 286.092 177.428L280.738 178.425C280.738 178.425 280.438 186.316 287.212 189.832C287.919 190.198 288.792 189.926 289.152 189.214C289.439 188.649 289.312 187.965 288.845 187.539V187.546Z" fill="#DB3C7E"/>
<path d="M283.305 182.547C283.305 181.297 284.625 180.293 285.512 179.755C285.592 179.017 285.772 178.246 286.092 177.435L280.738 178.432C280.738 178.432 280.438 186.323 287.212 189.839C287.919 190.205 288.792 189.932 289.152 189.221C285.865 187.705 283.298 184.016 283.298 182.547H283.305Z" fill="#D2BAE5"/>
<path d="M297.312 172.03H287.578V175.972H297.312V172.03Z" fill="#DB3C7E"/>
<path d="M297.312 173.998H287.578V175.966H297.312V173.998Z" fill="#D2BAE5"/>
<path d="M301.533 172.243L296.319 171.439C296.032 171.392 295.772 171.618 295.772 171.911V175.893C295.772 176.185 296.032 176.404 296.319 176.365L301.533 175.56C301.766 175.527 301.933 175.328 301.933 175.088V172.715C301.933 172.482 301.76 172.283 301.533 172.243Z" fill="#3857E1"/>
<path d="M301.933 175.088V172.715C301.933 172.642 301.913 172.569 301.88 172.502C301.8 173.141 301.473 174.051 300.313 174.344C299.393 174.583 297.466 174.65 295.766 174.663V175.886C295.766 176.179 296.026 176.398 296.312 176.358L301.526 175.554C301.76 175.52 301.926 175.321 301.926 175.082L301.933 175.088Z" fill="#536BEC"/>
<path d="M269.61 181.423C269.61 181.423 268.37 178.233 265.576 176.877C262.789 175.527 262.789 170.841 264.936 169.405C267.089 167.976 279.757 167.577 283.105 168.454C285.611 169.106 287.938 170.03 288.952 170.455C289.272 170.588 289.485 170.9 289.485 171.246V176.697C289.485 177.089 289.225 177.428 288.845 177.528C287.732 177.827 285.365 178.432 283.425 178.784C280.798 179.263 278.564 179.423 278.564 179.815C278.564 180.207 278.691 181.417 278.691 181.417H269.603L269.61 181.423Z" fill="#3857E1"/>
<path d="M288.959 170.455C288.619 170.316 288.132 170.116 287.545 169.89C287.878 171.778 287.945 174.151 286.345 174.743C283.585 175.753 275.817 175.102 275.017 176.843C274.337 178.326 273.01 179.868 268.876 180.008C269.377 180.812 269.617 181.424 269.617 181.424H278.704C278.704 181.424 278.578 180.214 278.578 179.822C278.578 179.429 280.811 179.263 283.438 178.791C285.372 178.439 287.745 177.834 288.859 177.535C289.239 177.435 289.499 177.096 289.499 176.704V171.253C289.499 170.907 289.292 170.595 288.965 170.462L288.959 170.455Z" fill="#536BEC"/>
<path d="M268.79 186.496H278.558C278.558 186.496 282.311 204.371 290.392 208.166C296.293 210.938 296.279 231.3 295.839 242.055C295.693 245.751 292.646 248.663 288.939 248.663H272.937C269.163 248.663 266.083 245.645 266.03 241.876C265.836 228.461 265.79 198.774 268.797 186.496H268.79Z" fill="#DB3C7E"/>
<path d="M290.385 208.166C282.311 204.371 278.551 186.496 278.551 186.496H268.783C268.41 188.018 268.083 189.806 267.803 191.794C269.856 190.637 273.11 189.288 274.904 191.076C277.657 193.821 278.597 199.93 283.918 205.235C289.238 210.54 291.085 217.101 291.085 227.192C291.085 236.511 284.158 246.828 266.916 245.166C268.103 247.254 270.35 248.663 272.93 248.663H288.932C292.639 248.663 295.686 245.745 295.832 242.055C296.272 231.306 296.286 210.945 290.385 208.166Z" fill="#D2BAE5"/>
<path d="M283.511 213.085H276.224C272.968 213.085 270.33 215.716 270.33 218.962V238.625C270.33 241.871 272.968 244.502 276.224 244.502H283.511C286.766 244.502 289.405 241.871 289.405 238.625V218.962C289.405 215.716 286.766 213.085 283.511 213.085Z" fill="white"/>
<path d="M276.224 214.355H283.511C286.058 214.355 288.132 216.422 288.132 218.962V238.625C288.132 241.164 286.058 243.232 283.511 243.232H276.224C273.677 243.232 271.604 241.164 271.604 238.625V218.962C271.604 216.422 273.677 214.355 276.224 214.355Z" fill="#DB3C7E"/>
<path d="M278.804 180.798H268.49C268.14 180.798 267.856 181.081 267.856 181.43V186.136C267.856 186.485 268.14 186.768 268.49 186.768H278.804C279.154 186.768 279.438 186.485 279.438 186.136V181.43C279.438 181.081 279.154 180.798 278.804 180.798Z" fill="#DB3C7E"/>
<path d="M268.603 186.402C268.463 186.402 268.35 186.289 268.35 186.15V181.669C268.35 181.53 268.463 181.417 268.603 181.417C268.743 181.417 268.856 181.53 268.856 181.669V186.15C268.856 186.289 268.743 186.402 268.603 186.402Z" fill="#D8228D"/>
<path d="M269.61 186.402C269.47 186.402 269.356 186.289 269.356 186.15V181.669C269.356 181.53 269.47 181.417 269.61 181.417C269.75 181.417 269.863 181.53 269.863 181.669V186.15C269.863 186.289 269.75 186.402 269.61 186.402Z" fill="#D8228D"/>
<path d="M270.623 186.402C270.483 186.402 270.37 186.289 270.37 186.15V181.669C270.37 181.53 270.483 181.417 270.623 181.417C270.763 181.417 270.876 181.53 270.876 181.669V186.15C270.876 186.289 270.763 186.402 270.623 186.402Z" fill="#D8228D"/>
<path d="M271.63 186.402C271.49 186.402 271.376 186.289 271.376 186.15V181.669C271.376 181.53 271.49 181.417 271.63 181.417C271.77 181.417 271.883 181.53 271.883 181.669V186.15C271.883 186.289 271.77 186.402 271.63 186.402Z" fill="#D8228D"/>
<path d="M272.643 186.402C272.503 186.402 272.39 186.289 272.39 186.15V181.669C272.39 181.53 272.503 181.417 272.643 181.417C272.783 181.417 272.897 181.53 272.897 181.669V186.15C272.897 186.289 272.783 186.402 272.643 186.402Z" fill="#D8228D"/>
<path d="M273.65 186.402C273.51 186.402 273.397 186.289 273.397 186.15V181.669C273.397 181.53 273.51 181.417 273.65 181.417C273.79 181.417 273.904 181.53 273.904 181.669V186.15C273.904 186.289 273.79 186.402 273.65 186.402Z" fill="#D8228D"/>
<path d="M274.657 186.402C274.517 186.402 274.404 186.289 274.404 186.15V181.669C274.404 181.53 274.517 181.417 274.657 181.417C274.797 181.417 274.911 181.53 274.911 181.669V186.15C274.911 186.289 274.797 186.402 274.657 186.402Z" fill="#D8228D"/>
<path d="M275.67 186.402C275.53 186.402 275.417 186.289 275.417 186.15V181.669C275.417 181.53 275.53 181.417 275.67 181.417C275.81 181.417 275.924 181.53 275.924 181.669V186.15C275.924 186.289 275.81 186.402 275.67 186.402Z" fill="#D8228D"/>
<path d="M276.677 186.402C276.537 186.402 276.424 186.289 276.424 186.15V181.669C276.424 181.53 276.537 181.417 276.677 181.417C276.817 181.417 276.931 181.53 276.931 181.669V186.15C276.931 186.289 276.817 186.402 276.677 186.402Z" fill="#D8228D"/>
<path d="M277.69 186.402C277.55 186.402 277.437 186.289 277.437 186.15V181.669C277.437 181.53 277.55 181.417 277.69 181.417C277.83 181.417 277.944 181.53 277.944 181.669V186.15C277.944 186.289 277.83 186.402 277.69 186.402Z" fill="#D8228D"/>
<path d="M278.697 186.402C278.557 186.402 278.444 186.289 278.444 186.15V181.669C278.444 181.53 278.557 181.417 278.697 181.417C278.837 181.417 278.951 181.53 278.951 181.669V186.15C278.951 186.289 278.837 186.402 278.697 186.402Z" fill="#D8228D"/>
<path d="M255.935 163.057C258.282 163.057 260.182 164.958 260.182 167.291V232.344H251.688V167.291C251.688 164.951 253.595 163.057 255.935 163.057Z" fill="#2C4B7F"/>
<path d="M255.935 163.057C255.435 163.057 254.955 163.15 254.508 163.309C256.155 163.894 257.329 165.456 257.329 167.298V232.35H260.182V167.298C260.182 164.958 258.282 163.063 255.935 163.063V163.057Z" fill="#1C2E67"/>
<path d="M255.168 208.885V169.172C255.168 168.528 254.641 168.002 253.995 168.002C253.348 168.002 252.821 168.528 252.821 169.172V208.885C252.821 209.529 253.348 210.055 253.995 210.055C254.641 210.055 255.168 209.529 255.168 208.885Z" fill="#536BEC"/>
<path d="M255.168 216.323V212.674C255.168 212.029 254.641 211.504 253.995 211.504C253.348 211.504 252.821 212.029 252.821 212.674V216.323C252.821 216.968 253.348 217.493 253.995 217.493C254.641 217.493 255.168 216.968 255.168 216.323Z" fill="#536BEC"/>
<path d="M270.47 240.154H241.407L244.514 233.633C245.448 231.665 247.435 230.416 249.621 230.416H262.263C264.443 230.416 266.43 231.665 267.37 233.633L270.477 240.154H270.47Z" fill="#121B5C"/>
<path d="M267.363 233.633C266.43 231.665 264.443 230.416 262.256 230.416H260.756C261.803 230.921 264.016 231.24 263.669 234.351C263.283 237.821 248.701 238.319 242.227 238.419L241.4 240.154H270.463L267.356 233.633H267.363Z" fill="#19266B"/>
<path d="M283.798 239.303H228.079C227.545 239.303 227.112 239.735 227.112 240.267V243.305C227.112 243.837 227.545 244.269 228.079 244.269H283.798C284.332 244.269 284.765 243.837 284.765 243.305V240.267C284.765 239.735 284.332 239.303 283.798 239.303Z" fill="#19266B"/>
<path d="M289.832 247.759H222.045L225.165 241.131H286.712L289.832 247.759Z" fill="#1C2E67"/>
<path d="M289.826 247.759H222.045V248.663H289.826V247.759Z" fill="#121B5C"/>
<path d="M224.505 242.54L222.052 247.759H279.618C265.09 242.447 235.18 242.381 224.505 242.54Z" fill="#2C4B7F"/>
<path d="M37.0647 133.455L42.4186 132.611L37.0647 131.767C35.8313 131.574 34.8578 130.603 34.6645 129.374L33.8177 124.036L32.971 129.374C32.7776 130.603 31.8042 131.574 30.5707 131.767L25.2168 132.611L30.5707 133.455C31.8042 133.648 32.7776 134.618 32.971 135.848L33.8177 141.186L34.6645 135.848C34.8578 134.618 35.8313 133.648 37.0647 133.455Z" fill="white"/>
<path d="M244.654 106.041L250.008 105.197L244.654 104.353C243.42 104.16 242.447 103.189 242.253 101.96L241.407 96.6216L240.56 101.96C240.366 103.189 239.393 104.16 238.16 104.353L232.806 105.197L238.16 106.041C239.393 106.234 240.366 107.204 240.56 108.434L241.407 113.772L242.253 108.434C242.447 107.204 243.42 106.234 244.654 106.041Z" fill="white"/>
<path d="M60.7274 92.0082L61.7209 98.2834L62.7143 92.0082C62.941 90.5591 64.0811 89.4223 65.5346 89.1963L71.8286 88.2058L65.5346 87.2154C64.0811 86.9893 62.941 85.8526 62.7143 84.3968L61.7209 78.1216L60.7274 84.3968C60.5007 85.846 59.3606 86.9827 57.9005 87.2154L51.6064 88.2058L57.9005 89.1963C59.3539 89.4223 60.4941 90.5591 60.7274 92.0082Z" fill="white"/>
<path d="M119.174 159.66L120.42 167.55L121.667 159.66C121.954 157.838 123.387 156.409 125.214 156.123L133.128 154.88L125.214 153.637C123.387 153.351 121.954 151.922 121.667 150.101L120.42 142.21L119.174 150.101C118.887 151.922 117.453 153.351 115.627 153.637L107.712 154.88L115.627 156.123C117.453 156.409 118.887 157.838 119.174 159.66Z" fill="white"/>
<path d="M223.212 76.3667L224.459 84.2573L225.705 76.3667C225.992 74.5453 227.425 73.116 229.252 72.8302L237.167 71.5871L229.252 70.344C227.425 70.0582 225.992 68.629 225.705 66.8076L224.459 58.917L223.212 66.8076C222.925 68.629 221.492 70.0582 219.665 70.344L211.75 71.5871L219.665 72.8302C221.492 73.116 222.925 74.5453 223.212 76.3667Z" fill="white"/>
<path d="M117.18 69.1738L118.28 76.1271L119.38 69.1738C119.634 67.5718 120.901 66.3087 122.507 66.0561L129.481 64.9593L122.507 63.8625C120.901 63.6099 119.634 62.3535 119.38 60.7448L118.28 53.7915L117.18 60.7448C116.927 62.3468 115.667 63.6099 114.053 63.8625L107.079 64.9593L114.053 66.0561C115.66 66.3087 116.927 67.5651 117.18 69.1738Z" fill="white"/>
<path d="M22.1765 177.375L26.4303 176.704L22.1765 176.032C21.1964 175.88 20.423 175.108 20.2697 174.131L19.5963 169.89L18.9229 174.131C18.7695 175.108 17.9961 175.88 17.016 176.032L12.7622 176.704L17.016 177.375C17.9961 177.528 18.7695 178.299 18.9229 179.276L19.5963 183.518L20.2697 179.276C20.423 178.299 21.1964 177.528 22.1765 177.375Z" fill="white"/>
<path d="M280.671 133.083L281.458 138.069L282.244 133.083C282.424 131.933 283.331 131.029 284.485 130.85L289.485 130.065L284.485 129.281C283.331 129.101 282.424 128.197 282.244 127.047L281.458 122.062L280.671 127.047C280.491 128.197 279.584 129.101 278.431 129.281L273.43 130.065L278.431 130.85C279.584 131.029 280.491 131.933 280.671 133.083Z" fill="white"/>
</svg>
