<svg width="64" height="55" viewBox="0 0 64 55" fill="none" xmlns="http://www.w3.org/2000/svg">
<path d="M32 4.23077C30.8065 4.23077 29.6619 4.67651 28.818 5.46993C27.9741 6.26336 27.5 7.33947 27.5 8.46154C27.5 9.58361 27.9741 10.6597 28.818 11.4531C29.6619 12.2466 30.8065 12.6923 32 12.6923C33.1935 12.6923 34.3381 12.2466 35.182 11.4531C36.0259 10.6597 36.5 9.58361 36.5 8.46154C36.5 7.33947 36.0259 6.26336 35.182 5.46993C34.3381 4.67651 33.1935 4.23077 32 4.23077ZM23 8.46154C23 6.2174 23.9482 4.06517 25.636 2.47833C27.3239 0.891481 29.6131 0 32 0C34.3869 0 36.6761 0.891481 38.364 2.47833C40.0518 4.06517 41 6.2174 41 8.46154C41 10.7057 40.0518 12.8579 38.364 14.4447C36.6761 16.0316 34.3869 16.9231 32 16.9231C29.6131 16.9231 27.3239 16.0316 25.636 14.4447C23.9482 12.8579 23 10.7057 23 8.46154ZM53.375 6.34615C52.4799 6.34615 51.6215 6.68046 50.9885 7.27553C50.3556 7.87059 50 8.67768 50 9.51923C50 10.3608 50.3556 11.1679 50.9885 11.7629C51.6215 12.358 52.4799 12.6923 53.375 12.6923C54.2701 12.6923 55.1285 12.358 55.7615 11.7629C56.3944 11.1679 56.75 10.3608 56.75 9.51923C56.75 8.67768 56.3944 7.87059 55.7615 7.27553C55.1285 6.68046 54.2701 6.34615 53.375 6.34615ZM45.5 9.51923C45.5 8.54694 45.7037 7.58418 46.0994 6.6859C46.4952 5.78762 47.0753 4.97143 47.8065 4.28392C48.5378 3.59641 49.4059 3.05105 50.3614 2.67897C51.3168 2.30689 52.3408 2.11538 53.375 2.11538C54.4092 2.11538 55.4332 2.30689 56.3886 2.67897C57.3441 3.05105 58.2122 3.59641 58.9435 4.28392C59.6747 4.97143 60.2548 5.78762 60.6506 6.6859C61.0463 7.58418 61.25 8.54694 61.25 9.51923C61.25 11.4829 60.4203 13.366 58.9435 14.7545C57.4666 16.143 55.4636 16.9231 53.375 16.9231C51.2864 16.9231 49.2834 16.143 47.8065 14.7545C46.3297 13.366 45.5 11.4829 45.5 9.51923ZM7.25 9.51923C7.25 8.67768 7.60558 7.87059 8.23851 7.27553C8.87145 6.68046 9.72989 6.34615 10.625 6.34615C11.5201 6.34615 12.3786 6.68046 13.0115 7.27553C13.6444 7.87059 14 8.67768 14 9.51923C14 10.3608 13.6444 11.1679 13.0115 11.7629C12.3786 12.358 11.5201 12.6923 10.625 12.6923C9.72989 12.6923 8.87145 12.358 8.23851 11.7629C7.60558 11.1679 7.25 10.3608 7.25 9.51923ZM10.625 2.11538C8.53642 2.11538 6.53338 2.89543 5.05654 4.28392C3.57969 5.67241 2.75 7.55561 2.75 9.51923C2.75 11.4829 3.57969 13.366 5.05654 14.7545C6.53338 16.143 8.53642 16.9231 10.625 16.9231C12.7136 16.9231 14.7166 16.143 16.1935 14.7545C17.6703 13.366 18.5 11.4829 18.5 9.51923C18.5 7.55561 17.6703 5.67241 16.1935 4.28392C14.7166 2.89543 12.7136 2.11538 10.625 2.11538ZM15.4648 45.4913C14.4471 46.1219 13.2669 46.4818 12.0493 46.5326C10.8318 46.5834 9.62226 46.3233 8.54922 45.78C7.47618 45.2366 6.57964 44.4302 5.95474 43.4464C5.32985 42.4627 4.99993 41.3382 5 40.1923V26.4423C5 26.1618 5.11853 25.8928 5.32951 25.6944C5.54048 25.496 5.82663 25.3846 6.125 25.3846H15.1947C15.4022 23.8363 16.0609 22.3721 17.0982 21.1538H6.125C4.63316 21.1538 3.20242 21.711 2.14752 22.7028C1.09263 23.6946 0.500001 25.0397 0.500001 26.4423V40.1923C0.49942 42.0138 0.999184 43.8046 1.95088 45.3911C2.90259 46.9777 4.27396 48.3063 5.93219 49.2483C7.59041 50.1902 9.47928 50.7136 11.4158 50.7677C13.3524 50.8218 15.271 50.4048 16.9857 49.5571C16.2844 48.2732 15.7727 46.9053 15.4648 45.4913ZM47.0143 49.5571C48.729 50.4048 50.6476 50.8218 52.5842 50.7677C54.5207 50.7136 56.4096 50.1902 58.0678 49.2483C59.726 48.3063 61.0974 46.9777 62.0491 45.3911C63.0008 43.8046 63.5006 42.0138 63.5 40.1923V26.4423C63.5 25.0397 62.9074 23.6946 61.8525 22.7028C60.7976 21.711 59.3668 21.1538 57.875 21.1538H46.9017C47.9391 22.3721 48.5978 23.8363 48.8052 25.3846H57.875C58.1734 25.3846 58.4595 25.496 58.6705 25.6944C58.8815 25.8928 59 26.1618 59 26.4423V40.1923C59.0001 41.3382 58.6701 42.4627 58.0453 43.4464C57.4204 44.4302 56.5238 45.2366 55.4508 45.78C54.3777 46.3233 53.1682 46.5834 51.9507 46.5326C50.7331 46.4818 49.5529 46.1219 48.5353 45.4913C48.2273 46.9053 47.7156 48.2732 47.0143 49.5571ZM24.125 21.1538C22.6332 21.1538 21.2024 21.711 20.1475 22.7028C19.0926 23.6946 18.5 25.0397 18.5 26.4423V42.3077C18.5 45.6739 19.9223 48.9022 22.4541 51.2825C24.9858 53.6628 28.4196 55 32 55C35.5804 55 39.0142 53.6628 41.5459 51.2825C44.0777 48.9022 45.5 45.6739 45.5 42.3077V26.4423C45.5 25.0397 44.9074 23.6946 43.8525 22.7028C42.7976 21.711 41.3668 21.1538 39.875 21.1538H24.125ZM23 26.4423C23 26.1618 23.1185 25.8928 23.3295 25.6944C23.5405 25.496 23.8266 25.3846 24.125 25.3846H39.875C40.1734 25.3846 40.4595 25.496 40.6705 25.6944C40.8815 25.8928 41 26.1618 41 26.4423V42.3077C41 44.5518 40.0518 46.7041 38.364 48.2909C36.6761 49.8777 34.3869 50.7692 32 50.7692C29.6131 50.7692 27.3239 49.8777 25.636 48.2909C23.9482 46.7041 23 44.5518 23 42.3077V26.4423Z" fill="#FF3881"/>
</svg>
