<svg width="61" height="61" viewBox="0 0 61 61" fill="none" xmlns="http://www.w3.org/2000/svg">
<path d="M18.1667 30.5L25.6667 38L43.1667 20.5M50.6667 38C48.1667 40.5 53.7917 47.375 50.6667 50.5C47.5417 53.625 40.6667 48 38.1667 50.5C35.6667 53 34.4167 58 30.6667 58C26.9167 58 25.6667 53 23.1667 50.5C20.6667 48 13.7917 53.625 10.6667 50.5C7.54175 47.375 13.1667 40.5 10.6667 38C8.16675 35.5 3.16675 34.25 3.16675 30.5C3.16675 26.75 8.16675 25.5 10.6667 23C13.1667 20.5 7.54175 13.625 10.6667 10.5C13.7917 7.375 20.6667 13 23.1667 10.5C25.6667 8 26.9167 3 30.6667 3C34.4167 3 35.6667 8 38.1667 10.5C40.6667 13 47.5417 7.375 50.6667 10.5C53.7917 13.625 48.1667 20.5 50.6667 23C53.1667 25.5 58.1667 26.75 58.1667 30.5C58.1667 34.25 53.1667 35.5 50.6667 38Z" stroke="#FF3881" stroke-width="5"/>
</svg>
