<svg width="56" height="55" viewBox="0 0 56 55" fill="none" xmlns="http://www.w3.org/2000/svg">
<path d="M29.0116 3.11161C25.183 3.11053 21.4128 4.04975 18.0321 5.84674C14.6515 7.64372 11.7639 10.2435 9.62313 13.4176C7.48233 16.5917 6.15384 20.243 5.75439 24.0507C5.35493 27.8583 5.89673 31.7058 7.33219 35.2551C7.40915 35.4448 7.44798 35.6479 7.44647 35.8526C7.44496 36.0573 7.40314 36.2598 7.3234 36.4484C7.24366 36.6369 7.12755 36.808 6.98171 36.9517C6.83588 37.0954 6.66316 37.2089 6.47343 37.2859C6.2837 37.3629 6.08067 37.4017 5.87593 37.4002C5.67119 37.3987 5.46876 37.3568 5.28018 37.2771C5.09161 37.1974 4.92058 37.0813 4.77688 36.9354C4.63317 36.7896 4.5196 36.6169 4.44264 36.4271C2.15209 30.7621 1.89007 24.4795 3.70096 18.6434C5.51185 12.8073 9.28433 7.77654 14.3794 4.40321C19.4745 1.02988 25.579 -0.47863 31.6589 0.133178C37.7387 0.744986 43.4203 3.43951 47.7411 7.76034C52.0619 12.0812 54.7564 17.7627 55.3683 23.8426C55.9801 29.9225 54.4715 36.0269 51.0982 41.122C47.7249 46.2171 42.6941 49.9896 36.858 51.8005C31.022 53.6114 24.7393 53.3493 19.0743 51.0588C18.6939 50.9019 18.3909 50.6009 18.2316 50.2215C18.0722 49.842 18.0694 49.415 18.2237 49.0335C18.3781 48.652 18.677 48.347 19.0553 48.1851C19.4337 48.0232 19.8607 48.0175 20.2432 48.1692C23.4397 49.4592 26.8819 50.0264 30.3233 49.8301C33.7647 49.6339 37.1201 48.679 40.1492 47.034C43.1783 45.3889 45.8062 43.0944 47.8446 40.3148C49.883 37.5351 51.2815 34.3391 51.9399 30.9555C52.5984 27.572 52.5004 24.0848 51.6532 20.7436C50.8059 17.4023 49.2303 14.2898 47.0392 11.6289C44.848 8.96797 42.0955 6.82451 38.9789 5.35203C35.8623 3.87954 32.4586 3.11447 29.0116 3.11161Z" fill="#FF3881"/>
<path d="M11.8677 26.4901C11.8677 30.6639 13.3576 34.4885 15.8357 37.4622L14.3395 38.9585H9.59217C8.35253 38.9595 7.16406 39.4529 6.28805 40.33L1.18224 45.4327C0.855706 45.7596 0.63338 46.176 0.543345 46.6292C0.453309 47.0824 0.499602 47.5522 0.676377 47.9791C0.853152 48.406 1.15248 48.771 1.53655 49.0279C1.92063 49.2848 2.37222 49.4221 2.8343 49.4226H6.07608V52.6643C6.07649 53.1264 6.21382 53.578 6.47073 53.9621C6.72764 54.3461 7.09261 54.6455 7.51954 54.8223C7.94647 54.999 8.4162 55.0453 8.86943 54.9553C9.32265 54.8653 9.73903 54.6429 10.066 54.3164L15.1687 49.2106C16.0461 48.3358 16.5406 47.1486 16.5433 45.9096V41.1654L18.0395 39.6692C21.0356 42.1647 24.7929 43.5643 28.6914 43.6371C32.59 43.71 36.3969 42.4517 39.4841 40.0698C42.5714 37.688 44.7544 34.3249 45.6731 30.5354C46.5918 26.7459 46.1912 22.7564 44.5376 19.2252C42.8839 15.694 40.0758 12.832 36.5767 11.1114C33.0776 9.39084 29.0965 8.91444 25.2903 9.76085C21.484 10.6072 18.0799 12.7259 15.6398 15.7672C13.1996 18.8085 11.869 22.5908 11.8677 26.4901ZM29.0117 12.4631C31.2522 12.4639 33.4599 13.0013 35.45 14.0304C37.4401 15.0595 39.1548 16.5504 40.4505 18.3782C41.7462 20.206 42.5852 22.3176 42.8972 24.5363C43.2093 26.7549 42.9854 29.016 42.2442 31.1303C41.503 33.2447 40.2662 35.1507 38.6372 36.6889C37.0081 38.2271 35.0344 39.3527 32.881 39.9714C30.7277 40.5902 28.4575 40.6842 26.2603 40.2454C24.0632 39.8067 22.0032 38.8481 20.2526 37.4498L25.8416 31.8608C27.1487 32.6315 28.692 32.899 30.1822 32.6132C31.6724 32.3274 33.0073 31.5079 33.9365 30.3084C34.8657 29.1088 35.3255 27.6115 35.2298 26.0971C35.134 24.5828 34.4892 23.1553 33.4162 22.0824C32.3433 21.0094 30.9159 20.3646 29.4015 20.2689C27.8871 20.1731 26.3898 20.6329 25.1903 21.5621C23.9907 22.4914 23.1712 23.8262 22.8854 25.3164C22.5996 26.8066 22.8671 28.3499 23.6378 29.657L18.052 35.246C16.403 33.1823 15.3704 30.6949 15.0728 28.0701C14.7753 25.4453 15.2249 22.7899 16.3701 20.4094C17.5152 18.0289 19.3092 16.0202 21.5457 14.6144C23.7821 13.2086 26.3701 12.4629 29.0117 12.4631ZM8.49183 42.5306C8.63684 42.386 8.80893 42.2714 8.99827 42.1933C9.18761 42.1152 9.39048 42.0752 9.59529 42.0756H13.4262V45.9065C13.4253 46.3195 13.2605 46.7152 12.968 47.0068L9.1963 50.7785V47.864C9.1963 47.4506 9.03209 47.0542 8.73981 46.7619C8.44753 46.4697 8.0511 46.3055 7.63775 46.3055H4.72015L8.49183 42.5306Z" fill="#FF3881"/>
</svg>
